<svg xmlns="http://www.w3.org/2000/svg" viewBox="0 0 940 256" width="940" height="256" role="img" aria-label="zInstaPoster">
  <title>zInstaPoster</title>

  <!-- speed lines -->
  <g stroke="#E8563A" stroke-width="9" stroke-linecap="round" fill="none">
    <path d="M14 96 C 30 94, 44 95, 56 97"/>
    <path d="M6 132 C 26 129, 42 131, 54 133"/>
    <path d="M20 168 C 34 166, 46 167, 58 169"/>
  </g>

  <!-- polaroid -->
  <g transform="rotate(-8 154 128)">
    <path d="M86 52 C 124 46, 174 48, 210 54 C 215 92, 214 152, 209 196
             C 172 203, 120 202, 84 196 C 79 156, 80 92, 86 52 Z"
          fill="#FFFFFF" stroke="#1C1A17" stroke-width="9" stroke-linejoin="round"/>
    <path d="M98 66 C 128 62, 168 63, 197 67 C 200 94, 200 130, 197 158
             C 167 163, 127 162, 97 158 C 94 130, 94 94, 98 66 Z"
          fill="#FFD7C2" stroke="#1C1A17" stroke-width="7" stroke-linejoin="round"/>
    <g fill="#1C1A17">
      <ellipse cx="129" cy="104" rx="7.5" ry="9"/>
      <ellipse cx="168" cy="103" rx="7.5" ry="9"/>
    </g>
    <path d="M124 126 C 134 142, 162 143, 173 125"
          stroke="#1C1A17" stroke-width="8" stroke-linecap="round" fill="none"/>
    <path d="M106 180 C 126 177, 154 177, 176 180"
          stroke="#C9C2B6" stroke-width="7" stroke-linecap="round" fill="none"/>
  </g>

  <!-- wordmark -->
  <g font-family="'Arial Black', 'Helvetica Neue', Impact, sans-serif" font-weight="900">
    <text x="258" y="160" font-size="98" fill="#E8563A"
          transform="rotate(-8 258 160)">z</text>
    <text x="316" y="158" font-size="76" fill="#1C1A17" letter-spacing="-1.5">InstaPoster</text>
  </g>

  <!-- underline scrawl -->
  <path d="M318 180 C 422 172, 620 174, 792 179"
        stroke="#E8563A" stroke-width="8" stroke-linecap="round" fill="none"/>
</svg>
